<svg version="1.1" xmlns="http://www.w3.org/2000/svg" xmlns:xlink="http://www.w3.org/1999/xlink" width="291.89939" height="319.29173" viewBox="0,0,291.89939,319.29173"><g transform="translate(-94.05013,-7.52755)"><g data-paper-data="{&quot;isPaintingLayer&quot;:true}" fill-rule="evenodd" stroke="none" stroke-width="1" stroke-linecap="butt" stroke-linejoin="miter" stroke-miterlimit="10" stroke-dasharray="" stroke-dashoffset="0" style="mix-blend-mode: normal"><path d="M177.2,87.051c1.5,-0.518 46.199,-0.052 47.256,0.493c1.916,0.988 2.08,1.906 2.32,13.056c0.306,14.185 -0.713,13.2 13.642,13.2c13.839,0 12.898,0.992 13.18,-13.89c0.23,-12.152 0.207,-12.071 3.659,-12.738c2.6,-0.503 44.221,-0.457 46.047,0.05c2.763,0.767 2.871,1.219 3.096,12.959c0.266,13.871 -0.074,13.394 9.782,13.725c12.757,0.429 16.58,-0.222 16.654,-2.835l0.036,-1.271l0.358,1.233c0.427,1.472 1.469,2.489 3.027,2.956c1.122,0.336 1.116,0.343 -0.348,0.377c-2.687,0.062 -2.764,0.431 -2.628,12.626l0.119,10.675l1.306,1.166l1.307,1.167l10.893,-0.006c11.632,-0.007 11.683,-0.014 12.112,-1.722l0.281,-1.121l0.703,1.156c0.696,1.144 2.06,1.902 3.998,2.22c0.55,0.09 0.077,0.189 -1.051,0.219c-3.458,0.091 -3.149,-6.408 -3.149,66.148c0,72.667 -0.287,65.854 2.776,65.94l1.224,0.035l-1.152,0.345c-1.392,0.417 -3.037,1.889 -3.078,2.756c-0.017,0.346 -0.257,0.005 -0.533,-0.76c-0.68,-1.884 -0.926,-1.924 -12.15,-1.97c-14.404,-0.059 -13.412,-1.048 -13.687,13.65c-0.196,10.462 -0.219,10.709 -1.111,11.6l-0.911,0.91l-90.089,0.117c-59.998,0.078 -90.557,-0.018 -91.489,-0.288c-2.502,-0.724 -2.578,-1.072 -2.8,-12.829c-0.271,-14.358 0.869,-13.318 -14.375,-13.125c-11.139,0.141 -11.195,0.155 -11.271,2.874c-0.026,0.908 -0.125,1.291 -0.221,0.851c-0.37,-1.699 -1.191,-2.753 -2.655,-3.409l-1.522,-0.682l1.284,-0.257c0.706,-0.141 1.526,-0.458 1.822,-0.703c1.008,-0.837 0.775,-130.194 -0.236,-130.735c-0.425,-0.228 -1.55,-0.432 -2.5,-0.455c-1.681,-0.04 -1.693,-0.049 -0.436,-0.347c1.894,-0.45 3.301,-1.504 3.926,-2.942l0.553,-1.27l0.015,1.451c0.026,2.4 0.007,2.397 12.414,2.267l11.272,-0.118l0.965,-1.122l0.965,-1.123l-0.006,-10.677c-0.006,-10.855 -0.05,-11.249 -1.309,-11.937c-0.656,-0.357 -0.633,-0.434 0.277,-0.92c0.545,-0.292 1.249,-1.062 1.563,-1.711l0.571,-1.179l0.258,1.028c0.376,1.499 1.318,1.627 12.046,1.634c14.205,0.01 13.551,0.654 13.719,-13.522c0.141,-11.864 0.214,-12.161 3.281,-13.22M198.022,167.212c-0.95,-0.509 -21.038,-0.516 -22.299,-0.008c-2.115,0.852 -2.313,1.817 -2.453,11.977c-0.141,10.159 0.056,11.647 1.755,13.243l1.039,0.976h10.801h10.8l1.168,-1.306l1.167,-1.307v-10.413c0,-11.044 -0.173,-12.196 -1.978,-13.162M305.44,168.16l-1.36,-1.36h-10.634h-10.633l-1.307,1.167l-1.306,1.166l-0.125,10.188c-0.184,15.067 -0.923,14.279 13.412,14.278c14.101,-0.001 13.299,0.827 13.307,-13.739l0.006,-10.34l-1.36,-1.36M198.692,221.308l-1.109,-1.108l-10.291,-0.101c-14.739,-0.145 -13.841,-0.937 -14.018,12.362c-0.2,15.068 -1.181,14.066 14.04,14.339c13.825,0.248 12.285,-1.253 12.288,11.976c0.003,11.475 0.215,12.88 2.123,14.043c1.521,0.928 73.616,1.248 76.224,0.339c2.159,-0.753 2.234,-1.171 2.451,-13.639c0.151,-8.661 0.328,-11.608 0.719,-12c0.392,-0.391 3.32,-0.568 11.892,-0.719l11.373,-0.2l1.108,-1.108l1.108,-1.109l0.119,-10.633c0.163,-14.612 0.998,-13.75 -13.319,-13.75c-14.209,0 -13.4,-0.88 -13.4,14.564c0,10.491 -0.008,10.597 -0.889,11.213c-1.285,0.9 -76.905,0.954 -78.135,0.056c-0.728,-0.533 -0.788,-1.271 -0.976,-11.992l-0.2,-11.425l-1.108,-1.108" fill="#ffffff"/><path d="M176.747,8.197c0.89,-0.489 4.597,-0.565 23.944,-0.488l22.891,0.091l1.109,1.108l1.109,1.108l0.2,10.364c0.279,14.47 -0.604,13.606 13.913,13.614c14.867,0.009 14.077,0.73 14.11,-12.874c0.025,-10.621 0.234,-11.749 2.377,-12.819c1.604,-0.802 44.91,-1.096 46.953,-0.319c2.262,0.86 2.429,1.667 2.647,12.799c0.276,14.095 -0.914,12.946 13.692,13.219l10.691,0.2l1.109,1.109l1.108,1.109l0.108,37.955c0.094,33.195 0.033,38.029 -0.489,38.55c-1.352,1.353 -20.752,1.456 -23.327,0.125c-2.194,-1.135 -2.275,-1.552 -2.492,-12.867c-0.225,-11.74 -0.333,-12.192 -3.096,-12.959c-1.826,-0.507 -43.447,-0.553 -46.047,-0.05c-3.452,0.667 -3.429,0.586 -3.659,12.738c-0.282,14.882 0.659,13.89 -13.18,13.89c-14.355,0 -13.336,0.985 -13.642,-13.2c-0.245,-11.375 -0.4,-12.174 -2.528,-13.073c-1.879,-0.794 -46.874,-0.769 -48.361,0.026c-1.657,0.887 -1.842,2.08 -1.968,12.718c-0.158,13.352 -0.079,13.236 -9.246,13.618c-7.145,0.299 -15.315,-0.188 -16.085,-0.959c-0.873,-0.872 -0.887,-74.241 -0.014,-76.329c0.734,-1.758 0.515,-1.723 12.246,-1.927c14.564,-0.253 13.705,0.595 13.993,-13.815c0.226,-11.316 0.294,-11.76 1.934,-12.662M333.79,115.359l0.628,-0.959h10.811c12.275,0 12.817,0.108 13.582,2.702c0.718,2.437 0.361,22.02 -0.411,22.507c-0.339,0.214 -5.338,0.381 -11.494,0.385l-10.893,0.006l-1.307,-1.167l-1.306,-1.166l-0.119,-10.675c-0.102,-9.164 -0.03,-10.81 0.509,-11.633M123.331,115.383c1.992,-0.866 21.969,-0.826 22.84,0.046c0.541,0.54 0.629,2.139 0.629,11.377v10.749l-0.965,1.123l-0.965,1.122l-11.272,0.118c-8.159,0.085 -11.428,-0.011 -11.835,-0.349c-0.716,-0.594 -0.836,-21.511 -0.132,-22.828c0.238,-0.443 1.003,-1.054 1.7,-1.358M96,141.317c1.276,-0.645 22.441,-0.737 23.626,-0.103c1.119,0.599 1.231,129.908 0.113,130.837c-0.841,0.7 -20.747,1.036 -22.939,0.387c-2.807,-0.83 -2.589,4.41 -2.705,-64.892c-0.113,-67.293 -0.173,-65.179 1.905,-66.229M360.349,141.461c0.487,-0.586 1.828,-0.661 11.878,-0.661h11.328l1.123,0.965l1.122,0.966l0.104,63.399c0.111,68.037 0.203,65.132 -2.089,66.089c-2.01,0.84 -22.092,0.851 -23.239,0.013c-1.022,-0.748 -1.246,-129.542 -0.227,-130.771M175.723,167.204c1.261,-0.508 21.349,-0.501 22.299,0.008c1.805,0.966 1.978,2.118 1.978,13.162v10.413l-1.167,1.307l-1.168,1.306h-10.8h-10.801l-1.039,-0.976c-1.699,-1.596 -1.896,-3.084 -1.755,-13.243c0.14,-10.16 0.338,-11.125 2.453,-11.977M281.506,167.967l1.307,-1.167h10.633h10.634l1.36,1.36l1.36,1.36l-0.006,10.34c-0.008,14.566 0.794,13.738 -13.307,13.739c-14.335,0.001 -13.596,0.789 -13.412,-14.278l0.125,-10.188l1.306,-1.166M175.793,220.604c1.002,-0.503 2.958,-0.589 11.499,-0.505l10.291,0.101l1.109,1.108l1.108,1.108l0.2,11.425c0.188,10.721 0.248,11.459 0.976,11.992c1.23,0.898 76.85,0.844 78.135,-0.056c0.881,-0.616 0.889,-0.722 0.889,-11.213c0,-15.444 -0.809,-14.564 13.4,-14.564c14.317,0 13.482,-0.862 13.319,13.75l-0.119,10.633l-1.108,1.109l-1.108,1.108l-11.373,0.2c-8.572,0.151 -11.5,0.328 -11.892,0.719c-0.391,0.392 -0.568,3.339 -0.719,12c-0.217,12.468 -0.292,12.886 -2.451,13.639c-2.608,0.909 -74.703,0.589 -76.224,-0.339c-1.908,-1.163 -2.12,-2.568 -2.123,-14.043c-0.003,-13.229 1.537,-11.728 -12.288,-11.976c-15.221,-0.273 -14.24,0.729 -14.04,-14.339c0.138,-10.329 0.217,-10.701 2.519,-11.857M123,273.489c1.593,-0.391 19.617,-0.28 21.095,0.131c2.405,0.668 2.483,1.037 2.705,12.78c0.222,11.757 0.298,12.105 2.8,12.829c0.932,0.27 31.491,0.366 91.489,0.288l90.089,-0.117l0.911,-0.91c0.892,-0.891 0.915,-1.138 1.111,-11.619c0.225,-12.046 0.321,-12.459 3.098,-13.284c2.213,-0.657 21.483,-0.368 22.183,0.333c0.599,0.601 0.777,24.956 0.187,25.547c-0.183,0.183 -5.331,0.423 -11.44,0.533c-14.618,0.263 -13.352,-0.984 -13.628,13.419c-0.218,11.351 -0.378,12.136 -2.647,12.999c-1.508,0.573 -180.054,0.514 -181.702,-0.06c-2.131,-0.743 -2.232,-1.258 -2.466,-12.558c-0.306,-14.83 0.735,-13.8 -13.937,-13.8c-8.913,0 -10.48,-0.089 -11.019,-0.629c-0.544,-0.543 -0.629,-2.264 -0.629,-12.751c0,-12.723 -0.005,-12.687 1.8,-13.131" fill="#000000"/></g></g></svg>