<svg version="1.1" xmlns="http://www.w3.org/2000/svg" xmlns:xlink="http://www.w3.org/1999/xlink" width="291.89939" height="319.29173" viewBox="0,0,291.89939,319.29173"><g transform="translate(-94.05013,-7.52755)"><g data-paper-data="{&quot;isPaintingLayer&quot;:true}" fill="#000000" fill-rule="evenodd" stroke="none" stroke-width="1" stroke-linecap="butt" stroke-linejoin="miter" stroke-miterlimit="10" stroke-dasharray="" stroke-dashoffset="0" style="mix-blend-mode: normal"><path d="M176.747,8.197c0.89,-0.489 4.597,-0.565 23.944,-0.488l22.891,0.091l1.109,1.108l1.109,1.108l0.2,10.364c0.279,14.47 -0.604,13.606 13.913,13.614c14.867,0.009 14.077,0.73 14.11,-12.874c0.025,-10.621 0.234,-11.749 2.377,-12.819c1.604,-0.802 44.91,-1.096 46.953,-0.319c2.262,0.86 2.429,1.667 2.647,12.799c0.276,14.095 -0.914,12.946 13.692,13.219l10.691,0.2l1.109,1.109l1.108,1.109l0.108,37.955c0.094,33.195 0.033,38.029 -0.489,38.55c-1.352,1.353 -20.752,1.456 -23.327,0.125c-2.194,-1.135 -2.275,-1.552 -2.492,-12.867c-0.225,-11.74 -0.333,-12.192 -3.096,-12.959c-1.826,-0.507 -43.447,-0.553 -46.047,-0.05c-3.452,0.667 -3.429,0.586 -3.659,12.738c-0.282,14.882 0.659,13.89 -13.18,13.89c-14.355,0 -13.336,0.985 -13.642,-13.2c-0.245,-11.375 -0.4,-12.174 -2.528,-13.073c-1.879,-0.794 -46.874,-0.769 -48.361,0.026c-1.657,0.887 -1.842,2.08 -1.968,12.718c-0.158,13.352 -0.079,13.236 -9.246,13.618c-7.145,0.299 -15.315,-0.188 -16.085,-0.959c-0.873,-0.872 -0.887,-74.241 -0.014,-76.329c0.734,-1.758 0.515,-1.723 12.246,-1.927c14.564,-0.253 13.705,0.595 13.993,-13.815c0.226,-11.316 0.294,-11.76 1.934,-12.662M333.79,115.359l0.628,-0.959h10.811c12.275,0 12.817,0.108 13.582,2.702c0.718,2.437 0.361,22.02 -0.411,22.507c-0.339,0.214 -5.338,0.381 -11.494,0.385l-10.893,0.006l-1.307,-1.167l-1.306,-1.166l-0.119,-10.675c-0.102,-9.164 -0.03,-10.81 0.509,-11.633M123.331,115.383c1.992,-0.866 21.969,-0.826 22.84,0.046c0.541,0.54 0.629,2.139 0.629,11.377v10.749l-0.965,1.123l-0.965,1.122l-11.272,0.118c-8.159,0.085 -11.428,-0.011 -11.835,-0.349c-0.716,-0.594 -0.836,-21.511 -0.132,-22.828c0.238,-0.443 1.003,-1.054 1.7,-1.358M96,141.317c1.276,-0.645 22.441,-0.737 23.626,-0.103c1.119,0.599 1.231,129.908 0.113,130.837c-0.841,0.7 -20.747,1.036 -22.939,0.387c-2.807,-0.83 -2.589,4.41 -2.705,-64.892c-0.113,-67.293 -0.173,-65.179 1.905,-66.229M360.349,141.461c0.487,-0.586 1.828,-0.661 11.878,-0.661h11.328l1.123,0.965l1.122,0.966l0.104,63.399c0.111,68.037 0.203,65.132 -2.089,66.089c-2.01,0.84 -22.092,0.851 -23.239,0.013c-1.022,-0.748 -1.246,-129.542 -0.227,-130.771M175.723,167.204c1.261,-0.508 21.349,-0.501 22.299,0.008c1.805,0.966 1.978,2.118 1.978,13.162v10.413l-1.167,1.307l-1.168,1.306h-10.8h-10.801l-1.039,-0.976c-1.699,-1.596 -1.896,-3.084 -1.755,-13.243c0.14,-10.16 0.338,-11.125 2.453,-11.977M281.506,167.967l1.307,-1.167h10.633h10.634l1.36,1.36l1.36,1.36l-0.006,10.34c-0.008,14.566 0.794,13.738 -13.307,13.739c-14.335,0.001 -13.596,0.789 -13.412,-14.278l0.125,-10.188l1.306,-1.166M175.793,220.604c1.002,-0.503 2.958,-0.589 11.499,-0.505l10.291,0.101l1.109,1.108l1.108,1.108l0.2,11.425c0.188,10.721 0.248,11.459 0.976,11.992c1.23,0.898 76.85,0.844 78.135,-0.056c0.881,-0.616 0.889,-0.722 0.889,-11.213c0,-15.444 -0.809,-14.564 13.4,-14.564c14.317,0 13.482,-0.862 13.319,13.75l-0.119,10.633l-1.108,1.109l-1.108,1.108l-11.373,0.2c-8.572,0.151 -11.5,0.328 -11.892,0.719c-0.391,0.392 -0.568,3.339 -0.719,12c-0.217,12.468 -0.292,12.886 -2.451,13.639c-2.608,0.909 -74.703,0.589 -76.224,-0.339c-1.908,-1.163 -2.12,-2.568 -2.123,-14.043c-0.003,-13.229 1.537,-11.728 -12.288,-11.976c-15.221,-0.273 -14.24,0.729 -14.04,-14.339c0.138,-10.329 0.217,-10.701 2.519,-11.857M123,273.489c1.593,-0.391 19.617,-0.28 21.095,0.131c2.405,0.668 2.483,1.037 2.705,12.78c0.222,11.757 0.298,12.105 2.8,12.829c0.932,0.27 31.491,0.366 91.489,0.288l90.089,-0.117l0.911,-0.91c0.892,-0.891 0.915,-1.138 1.111,-11.619c0.225,-12.046 0.321,-12.459 3.098,-13.284c2.213,-0.657 21.483,-0.368 22.183,0.333c0.599,0.601 0.777,24.956 0.187,25.547c-0.183,0.183 -5.331,0.423 -11.44,0.533c-14.618,0.263 -13.352,-0.984 -13.628,13.419c-0.218,11.351 -0.378,12.136 -2.647,12.999c-1.508,0.573 -180.054,0.514 -181.702,-0.06c-2.131,-0.743 -2.232,-1.258 -2.466,-12.558c-0.306,-14.83 0.735,-13.8 -13.937,-13.8c-8.913,0 -10.48,-0.089 -11.019,-0.629c-0.544,-0.543 -0.629,-2.264 -0.629,-12.751c0,-12.723 -0.005,-12.687 1.8,-13.131"/></g></g></svg>